<?xml version="1.0" encoding="utf-8"?>
<!-- Generator: Adobe Illustrator 16.0.0, SVG Export Plug-In . SVG Version: 6.00 Build 0)  -->
<!DOCTYPE svg PUBLIC "-//W3C//DTD SVG 1.1//EN" "http://www.w3.org/Graphics/SVG/1.1/DTD/svg11.dtd">
<svg version="1.1" id="Layer_1" xmlns="http://www.w3.org/2000/svg" xmlns:xlink="http://www.w3.org/1999/xlink" x="0px" y="0px"
	 width="800px" height="80px" viewBox="0 0 192 19.2" enable-background="new 0 0 192 19.2" xml:space="preserve">
<polygon fill-rule="evenodd" clip-rule="evenodd" points="182.834,8.835 2.389,8.835 2.389,8.335 182.834,8.335 182.833,8.325 
	182.832,8.301 182.831,8.278 182.829,8.254 182.828,8.23 182.827,8.207 182.825,8.183 182.823,8.16 182.822,8.136 182.82,8.112 
	182.818,8.089 182.816,8.065 182.814,8.042 182.812,8.018 182.81,7.994 182.808,7.971 182.805,7.947 182.803,7.923 182.8,7.9 
	182.797,7.876 182.794,7.853 182.791,7.829 182.788,7.806 182.785,7.782 182.782,7.758 182.778,7.734 182.775,7.711 182.772,7.688 
	182.769,7.664 182.765,7.64 182.761,7.616 182.757,7.593 182.753,7.569 182.749,7.545 182.745,7.522 182.741,7.498 182.736,7.475 
	182.732,7.451 182.728,7.427 182.724,7.404 182.719,7.38 182.714,7.356 182.709,7.333 182.704,7.309 182.699,7.286 182.694,7.262 
	182.688,7.238 182.684,7.215 182.678,7.191 182.673,7.167 182.667,7.144 182.661,7.12 182.655,7.097 182.649,7.073 182.644,7.049 
	182.638,7.026 182.632,7.002 182.625,6.979 182.619,6.955 182.612,6.931 182.605,6.908 182.6,6.884 182.593,6.86 182.586,6.837 
	182.579,6.813 182.572,6.79 182.565,6.766 182.558,6.742 182.551,6.719 182.543,6.695 182.536,6.671 182.528,6.648 182.521,6.624 
	182.513,6.601 182.505,6.577 182.497,6.553 182.489,6.53 182.481,6.506 182.474,6.482 182.465,6.458 182.456,6.435 182.448,6.412 
	182.439,6.388 182.431,6.364 182.422,6.34 182.413,6.317 182.404,6.293 182.396,6.27 182.387,6.246 182.377,6.223 182.368,6.199 
	182.358,6.175 182.349,6.152 182.34,6.128 182.33,6.104 182.32,6.081 182.311,6.057 182.301,6.034 182.29,6.01 182.28,5.986 
	182.27,5.963 182.26,5.939 182.249,5.916 182.239,5.892 182.229,5.868 182.218,5.845 182.207,5.821 182.196,5.797 182.186,5.773 
	182.174,5.75 182.163,5.726 182.151,5.703 182.141,5.679 182.129,5.655 182.118,5.632 182.106,5.608 182.094,5.584 182.083,5.561 
	182.083,5.561 189.139,8.585 182.083,11.609 182.094,11.586 182.106,11.562 182.118,11.538 182.129,11.515 182.141,11.491 
	182.151,11.468 182.163,11.443 182.174,11.42 182.186,11.396 182.196,11.373 182.207,11.349 182.218,11.325 182.229,11.302 
	182.239,11.278 182.249,11.255 182.26,11.231 182.27,11.207 182.28,11.184 182.29,11.16 182.301,11.137 182.311,11.113 
	182.32,11.089 182.33,11.065 182.34,11.042 182.349,11.019 182.358,10.995 182.368,10.972 182.377,10.947 182.387,10.924 
	182.396,10.9 182.404,10.877 182.413,10.853 182.422,10.829 182.431,10.806 182.439,10.782 182.448,10.759 182.456,10.734 
	182.465,10.711 182.474,10.688 182.481,10.664 182.489,10.641 182.497,10.617 182.505,10.593 182.513,10.569 182.521,10.546 
	182.528,10.522 182.536,10.499 182.543,10.476 182.551,10.451 182.558,10.428 182.565,10.404 182.572,10.381 182.579,10.356 
	182.586,10.333 182.593,10.31 182.6,10.286 182.605,10.263 182.612,10.238 182.619,10.215 182.625,10.191 182.632,10.168 
	182.638,10.145 182.644,10.12 182.649,10.097 182.655,10.073 182.661,10.05 182.667,10.026 182.673,10.003 182.678,9.979 
	182.684,9.955 182.688,9.932 182.694,9.908 182.699,9.885 182.704,9.861 182.709,9.837 182.714,9.813 182.719,9.79 182.724,9.767 
	182.728,9.743 182.732,9.719 182.736,9.695 182.741,9.672 182.745,9.648 182.749,9.624 182.753,9.601 182.757,9.577 182.761,9.554 
	182.765,9.53 182.769,9.506 182.772,9.483 182.775,9.459 182.778,9.436 182.782,9.412 182.785,9.388 182.788,9.364 182.791,9.341 
	182.794,9.317 182.797,9.293 182.8,9.27 182.803,9.247 182.805,9.223 182.808,9.199 182.81,9.176 182.812,9.152 182.814,9.128 
	182.816,9.105 182.818,9.081 182.82,9.058 182.822,9.034 182.823,9.01 182.825,8.987 182.827,8.963 182.828,8.939 182.829,8.916 
	182.831,8.892 182.832,8.869 182.833,8.845 "/>
</svg>
