<?xml version="1.0" encoding="utf-8"?>
<!-- Generator: Adobe Illustrator 16.0.0, SVG Export Plug-In . SVG Version: 6.00 Build 0)  -->
<!DOCTYPE svg PUBLIC "-//W3C//DTD SVG 1.1//EN" "http://www.w3.org/Graphics/SVG/1.1/DTD/svg11.dtd">
<svg version="1.1" id="Layer_1" xmlns="http://www.w3.org/2000/svg" xmlns:xlink="http://www.w3.org/1999/xlink" x="0px" y="0px"
	 width="150px" height="174px" viewBox="0 0 72 83.52" enable-background="new 0 0 72 83.52" xml:space="preserve">
<path fill-rule="evenodd" clip-rule="evenodd" fill="#008ECB" d="M52.521,25.799c1.753-0.031,14.53-5.048,16.387-4.912
	c1.223,0.09,2.169,0.883,2.631,1.635c0.579,0.944,0.623,2.313,0.078,3.346c-0.529,1.004-1.308,1.417-2.547,1.826
	c-4.34,1.429-8.563,2.777-12.955,4.183c-4.766,1.526-6.416,2.805-8.682-1.252l-1.19-2.061c-0.065-0.118-0.11-0.216-0.182-0.319
	l-0.314-0.364c-0.508,2.481-4.317,14.227-4.414,15.478c0.333,0.233,0.527,0.496,0.858,0.761c0.725,0.578,8.779,8.762,9.169,9.338
	c0.951,1.406,0.636,4.223,0.636,6.098c0,4.461,0,8.923,0,13.384c0,2.146,0.116,4.633-0.006,6.736
	c-0.235,4.034-5.635,5.221-7.603,1.777c-0.831-1.453-0.543-4.396-0.543-6.263l0.002-16.764c0.015-1.412,0.096-0.886-1.136-2.193
	l-6.693-6.815c-0.636-0.633-2.762-2.987-3.384-3.314c-0.355,0.488-1.921,5.232-2.257,6.195c-0.738,2.116-1.501,4.143-2.221,6.285
	c-0.996,2.961-1.46,3.084-4.265,4.234L5.839,70.406c-5.16,2.201-8.536-5.328-2.97-7.59c3.999-1.625,7.974-3.363,11.976-5.037
	c0.932-0.39,5.582-2.184,5.865-2.644l2.267-6.366c1.504-4.315,3.051-8.324,4.345-12.788c0.631-2.174,1.263-4.414,1.951-6.556
	c0.656-2.039,1.455-4.553,1.942-6.604l-5.088-0.029c-0.692,0.092-1.875,2.387-2.249,2.994c-0.431,0.698-0.92,1.474-1.368,2.135
	c-1.902,2.807-3.575,5.726-5.476,8.532c-0.655,0.967-0.671,1.294-1.627,1.872c-2.761,1.667-6.091-1.138-4.907-4.156
	c0.287-0.731,0.924-1.532,1.322-2.181c0.438-0.716,0.923-1.479,1.364-2.141l8.198-12.688c1.406-1.576,3.442-1.163,5.869-1.163
	h14.009c6.54,0,5.311-0.228,8.668,5.37C50.824,22.854,51.571,24.311,52.521,25.799z"/>
<path fill-rule="evenodd" clip-rule="evenodd" fill="#008ECB" d="M45.187,0.136c3.462,0.566,6.36,3.615,5.708,7.771
	c-0.529,3.374-3.708,6.229-7.779,5.625c-3.392-0.502-6.265-3.742-5.625-7.791C38.017,2.41,41.182-0.518,45.187,0.136z"/>
</svg>
