<?xml version="1.0" encoding="utf-8"?>
<!-- Generator: Adobe Illustrator 16.0.0, SVG Export Plug-In . SVG Version: 6.00 Build 0)  -->
<!DOCTYPE svg PUBLIC "-//W3C//DTD SVG 1.1//EN" "http://www.w3.org/Graphics/SVG/1.1/DTD/svg11.dtd">
<svg version="1.1" id="Layer_1" xmlns="http://www.w3.org/2000/svg" xmlns:xlink="http://www.w3.org/1999/xlink" x="0px" y="0px"
	 width="36px" height="50px" viewBox="0 0 20.16 28.319" enable-background="new 0 0 20.16 28.319" xml:space="preserve">
<path fill-rule="evenodd" clip-rule="evenodd" fill="#AB1D21" d="M9.497,0.058C2.338,0.408-1.966,7.977,0.888,13.938
	c0.738,1.542,3.495,6.006,4.442,7.646l3.351,5.675c0.4,0.688,0.954,1.272,1.937,0.903c0.626-0.234,0.948-0.988,1.344-1.672
	l3.372-5.711c0.974-1.702,3.762-6.096,4.323-7.762c1.188-3.521,0.155-7.044-1.713-9.308c-0.105-0.128-0.242-0.301-0.334-0.394
	c-0.935-0.95-1.748-1.622-3.06-2.257C13.034,0.324,11.405-0.036,9.497,0.058L9.497,0.058z M9.282,5.212
	c2.923-0.473,5.244,1.568,5.628,3.96c0.456,2.842-1.635,5.045-4.005,5.448c-2.915,0.496-5.215-1.573-5.623-3.928
	C4.787,7.834,6.895,5.598,9.282,5.212z"/>
</svg>
