<?xml version="1.0" encoding="utf-8"?>
<!-- Generator: Adobe Illustrator 16.0.0, SVG Export Plug-In . SVG Version: 6.00 Build 0)  -->
<!DOCTYPE svg PUBLIC "-//W3C//DTD SVG 1.1//EN" "http://www.w3.org/Graphics/SVG/1.1/DTD/svg11.dtd">
<svg version="1.1" id="Layer_1" xmlns="http://www.w3.org/2000/svg" xmlns:xlink="http://www.w3.org/1999/xlink" x="0px" y="0px"
	 width="60px" height="80px" viewBox="0 0 24 31.92" enable-background="new 0 0 24 31.92" xml:space="preserve">
<path fill-rule="evenodd" clip-rule="evenodd" fill="#D88228" d="M0.004,3.974c-0.033,0.688,0.13,3.85,0.163,4.812
	c0.055,1.599,0.107,3.197,0.172,4.799c0.148,3.696,1.137,6.748,2.755,9.735c0.896,1.655,1.948,2.932,3.167,4.309l0.933,0.915
	c0.126,0.105,0.206,0.206,0.329,0.313c0.438,0.378,0.882,0.747,1.374,1.119c0.412,0.313,2.733,1.902,3.077,1.938
	c0.318,0.033,2.717-1.633,3.063-1.895l1.028-0.821c0.145-0.133,0.236-0.193,0.342-0.302l0.635-0.609
	c0.197-0.2,0.418-0.44,0.629-0.617c0.204-0.172,0.95-1.074,1.162-1.329c0.377-0.453,0.707-0.916,1.062-1.431
	c2.207-3.202,3.542-7.155,3.726-11.264c0.071-1.591,0.129-3.191,0.189-4.781c0.062-1.61,0.167-3.256,0.19-4.862l-0.204-0.063
	c-1.244-0.211-1.733-0.245-3.163-0.569c-2.183-0.496-3.97-1.15-5.973-2.021c-0.453-0.197-0.918-0.424-1.355-0.655
	c-0.17-0.09-1.247-0.688-1.299-0.687c-0.059,0.001-1.093,0.583-1.271,0.675C9.404,1.38,7.942,1.974,6.504,2.479
	C4.018,3.351,2.548,3.539,0.004,3.974L0.004,3.974z M1.382,5.122c0.877-0.081,2.132-0.389,2.977-0.608
	c1.961-0.507,3.428-1.019,5.26-1.813c0.308-0.133,2.346-1.148,2.387-1.149c0.087,0,1.036,0.512,1.211,0.597
	c2.797,1.357,6.305,2.568,9.398,2.975c-0.104,2.879-0.195,5.783-0.344,8.659c-0.141,2.698-0.776,5.026-1.734,7.229
	c-0.586,1.347-1.638,3.116-2.533,4.218l-2.129,2.331c-0.118,0.102-0.185,0.151-0.295,0.268c-0.112,0.119-0.191,0.156-0.3,0.263
	c-0.513,0.5-2.984,2.284-3.279,2.295c-0.33,0.013-2.833-1.878-3.31-2.296c-0.127-0.112-0.172-0.164-0.3-0.264
	c-0.123-0.097-0.168-0.174-0.283-0.278c-1.173-1.07-2.22-2.316-3.098-3.653c-0.553-0.843-1.132-1.852-1.579-2.882
	c-1.891-4.357-1.739-7.001-1.9-11.584C1.483,8.003,1.404,6.551,1.382,5.122L1.382,5.122z M2.762,6.24
	c2.149-0.347,5.146-1.324,7.146-2.206c0.235-0.104,2.081-0.972,2.098-0.972c0.017,0,1.879,0.879,2.124,0.984
	c1.411,0.603,3.084,1.208,4.587,1.603l2.497,0.603c0.041,0.352-0.114,3.24-0.137,3.859c-0.047,1.26-0.077,2.558-0.156,3.817
	c-0.217,3.42-1.244,6.267-2.93,8.998c-0.333,0.539-1.53,2.17-1.946,2.555l-0.724,0.763c-0.556,0.544-1.541,1.383-2.133,1.806
	c-0.316,0.226-0.817,0.606-1.183,0.793c-0.33-0.14-0.918-0.592-1.213-0.803c-0.841-0.603-1.438-1.137-2.151-1.828l-0.733-0.753
	c-0.095-0.113-0.106-0.139-0.225-0.258l-0.458-0.546c-0.461-0.555-0.832-1.118-1.244-1.73c-0.5-0.743-0.997-1.703-1.386-2.592
	c-0.835-1.909-1.403-4.085-1.554-6.403c-0.082-1.255-0.101-2.563-0.144-3.821C2.854,8.822,2.784,7.523,2.762,6.24z"/>
</svg>
